<?xml version="1.0" encoding="iso-8859-1"?>
<!-- Generator: Adobe Illustrator 16.0.0, SVG Export Plug-In . SVG Version: 6.00 Build 0)  -->
<!DOCTYPE svg PUBLIC "-//W3C//DTD SVG 1.1//EN" "http://www.w3.org/Graphics/SVG/1.1/DTD/svg11.dtd">
<svg version="1.1" id="Capa_1" xmlns="http://www.w3.org/2000/svg" xmlns:xlink="http://www.w3.org/1999/xlink" x="0px" y="0px"
	 width="40px" height="40px" viewBox="0 0 512.001 512" style="enable-background:new 0 0 512.001 512;" xml:space="preserve"
	>
<g>
	<g>
		<path d="M496.001,0h-80c-7.719,0-14.344,5.531-15.75,13.125L391.001,64h-375c-5.344,0-10.344,2.688-13.313,7.125
			c-2.969,4.437-3.516,10.094-1.453,15.031l80,192C83.72,284.125,89.548,288,96.001,288h254.281l-11.625,64H128.001
			c-8.844,0-16,7.156-16,16s7.156,16,16,16h224c7.719,0,14.344-5.531,15.75-13.125L429.345,32h66.656c8.844,0,16-7.156,16-16
			S504.845,0,496.001,0z M385.188,96l-11.625,64h-85.562V96H385.188z M256.001,96v64h-64V96H256.001z M160.001,96v64H66.673
			L40.001,96H160.001z M106.673,256l-26.672-64h80v64H106.673z M192.001,256v-64h64v64H192.001z M288.001,256v-64h79.75l-11.656,64
			H288.001z"/>
		<path d="M176.001,416c-26.5,0-48,21.469-48,48s21.5,48,48,48s48-21.469,48-48S202.501,416,176.001,416z"/>
		<path d="M304.001,416c-26.531,0-48,21.469-48,48s21.469,48,48,48s48-21.469,48-48S330.532,416,304.001,416z"/>
	</g>
</g>
<g>
</g>
<g>
</g>
<g>
</g>
<g>
</g>
<g>
</g>
<g>
</g>
<g>
</g>
<g>
</g>
<g>
</g>
<g>
</g>
<g>
</g>
<g>
</g>
<g>
</g>
<g>
</g>
<g>
</g>
</svg>
